Patient4_TMGait_0pt3_01_left_28_EMG.mot
version=1
nRows=36
nColumns=33
inDegrees=no
endheader
time	1LAddLong	2LGlutMax	3LGlutMed	4LIliopsoas	5LSemiMemb	6LBicFemLong	7LRecFem	8LVastMed	9LVastLat	10LGasMed	11LTibAnt	12lTibPost	13LPeroneusLong	14LSol	15LExtDigLong	16LFlexDigLong	17RAddLong	18RGlutMax	19RGlutMed	20RIliopsoas	21RSemiMemb	22RBicFemLong	23RRecFem	24RVastMed	25RVastLat	26RGasMed	27RTibAnt	28RTibPost	29RPeroneusLong	30RSol	31RExtDigLong	32RFlexDigLong
54.835	0.00473	0.003967	-0.067596	0.014801	-0.020905	-0.041656	-0.017853	0.009155	-0.03952	0.003967	-0.15991	0.004425	0.030975	-0.11093	0.10101	-0.01297	-0.035553	0.18265	0.58914	0.22644	-0.028381	-0.12833	-0.44281	0.24002	0.60989	0.005188	0.019989	-0.11902	-0.82733	0.62576	0.001678	-0.007629
54.836	0.019379	0.008698	0.00885	-0.001526	-0.005493	-0.02594	-0.034637	0.007629	-0.026703	0.007324	-0.13321	0.007172	0.033417	-0.088654	0.11047	-0.019379	-0.028992	0.26001	0.23895	0.2182	0.018311	-0.29572	-0.29724	0.2034	0.21103	-0.000153	-0.089111	-0.16571	-0.29251	0.56397	-0.00351	-0.010834
54.837	0.008698	-0.020599	-0.026093	0.019073	-0.00946	-0.021057	-0.053101	0.009766	-0.035553	-0.008392	-0.085602	0.002899	0.025635	-0.020752	0.016632	-0.01297	-0.005798	0.30685	0.020294	0.12436	0.09552	-0.5101	-0.018311	-0.13931	-0.20447	-0.068665	-0.048828	0.13458	-0.14603	0.38864	-0.010071	-0.005188
54.838	0.005798	-0.010529	0.011749	0.013733	-0.009918	-0.010986	-0.059052	0.016174	-0.034485	-0.014954	-0.022888	0.008698	0.018768	0.019226	-0.16007	-0.00473	0.0177	0.33142	0.070038	0.068665	0.065002	-0.48431	0.014038	-0.54733	-0.036469	-0.13672	-0.02243	0.19043	0.93185	0.050049	0.007629	-0.016174
54.839	0.00885	-0.023651	-0.018311	0.018311	-0.013733	-0.018311	-0.068665	0.003967	-0.032959	-0.005493	0.12619	0.015259	-0.027313	-0.003967	0.20493	0.002899	0.014496	0.24796	-0.072784	0.093079	0.043335	-0.04303	0.23056	-0.75851	0.12558	-0.00946	-0.030518	0.054321	1.8599	-0.028381	-0.003815	-0.015564
54.84	0.006866	-0.045929	-0.051727	0.019531	-0.007629	-0.038452	-0.080872	0.006104	-0.024261	0.013733	0.1091	0.011292	-0.050812	0.038757	0.061188	0.003204	0.011597	0.19318	0.17258	0.011749	0.018463	-0.10849	0.41794	-0.78217	-0.18997	0.047302	0.075073	0.12177	0.57297	-0.25559	-0.003967	-0.016327
54.841	0.002441	-0.036163	-0.02243	0.016632	-0.013885	-0.015106	-0.048981	0.007324	-0.037537	0.013885	-0.054779	0.009918	-0.024261	-0.035248	0.068512	-0.003357	0.008545	0.15091	0.092468	-0.026855	0.010834	-0.23987	0.001678	-0.43869	-0.36148	0.015869	0.08606	0.093231	-0.33173	-0.65613	-0.00885	-0.013885
54.842	0.004578	-0.041199	0.011597	0.010071	-0.014038	-0.014343	-0.046997	0.001068	-0.02533	-0.001984	-0.31647	0.008392	0.02655	-0.020447	0.04776	0.004272	-0.002136	0.095062	-0.10269	-0.25146	0.015717	-0.044556	-0.26245	-0.001678	-0.16296	0.018311	-0.031433	-0.029602	-0.1918	-0.57083	-0.004272	-0.010834
54.843	0.00824	-0.023651	0.000458	0.007477	-0.013428	-0.013733	-0.028687	0.00946	-0.028076	-0.030212	-0.099487	0.007935	0.061951	0.065918	0.16022	-0.015411	-0.002289	0.13626	-0.18097	-0.24078	0.025024	0.39063	-0.43839	0.48782	-0.046539	0.093536	-0.038147	-0.10422	-1.2032	-0.24597	-0.004578	-0.000916
54.844	0.003204	-0.032654	0.013123	0.00061	-0.011139	-0.026855	-0.027008	0.005188	-0.036469	-0.037079	0.014801	0.010986	0.047607	0.0737	0.074158	-0.006256	-0.011597	0.25726	0.090179	-0.13825	0.011902	0.39703	-0.55618	0.73441	-0.16892	0.10147	0.071259	0.06012	-1.571	-0.21469	-0.00412	0.000305
54.845	0.005341	-0.02594	0.007477	0.007172	-0.006256	-0.020447	-0.039063	0.004425	-0.005951	-0.02655	-0.031433	0.015717	0.000305	0.052643	0.25772	-0.021667	-0.021667	0.30258	0.00824	0.079803	-0.003357	0.48248	-0.68161	0.88531	-0.071259	0.067444	-0.072784	0.054474	-0.54138	-0.39902	-0.005951	0.002594
54.846	0.003815	-0.03067	-0.038147	0.011292	0.005493	-0.041351	-0.006866	0.003967	-0.025635	-0.012512	0.002899	0.012054	-0.043945	0.039368	0.053864	-0.003662	-0.00412	0.26138	-0.12787	0.28854	0.01236	0.33356	-0.60181	0.61722	-0.017395	0.035553	-0.13473	0.016022	0.56152	-0.10864	-0.002899	0.002136
54.847	0.003357	-0.018768	-0.046539	-0.006104	-0.010986	-0.058746	-0.018463	0.001526	-0.010986	-0.0383	0.031586	0.013733	0.007019	0.075226	-0.15854	-0.009003	0.008087	0.26047	-0.43274	0.32638	-0.001221	0.19394	-0.18662	0.55786	0.065002	0.019379	0	0.002136	-0.31952	0.22507	-0.005493	-0.001526
54.848	0.008087	-0.045013	-0.024261	0	-0.016022	-0.051117	-0.019836	-0.00061	-0.015106	-0.068665	0.023041	0.009155	0.14954	0.0914	-0.14358	-0.018616	0.026398	0.27756	-0.69839	0.26901	-0.020752	0.057983	0.07782	0.15198	0.10468	0.018921	0.063477	-0.041809	-0.13321	0.072479	-0.00061	-0.00824
54.849	-0.000916	-0.032196	0.023499	0.00351	-0.005798	-0.061188	-0.013123	-0.004883	-0.020447	-0.024719	0.074615	0.009766	0.11337	-0.041199	0.079346	-0.032043	0.024719	0.2948	0.022125	0.066528	-0.031891	-0.069885	0.11002	-0.30167	0.079346	0.028076	-0.023499	-0.20279	0.7605	0.050354	-0.004578	-0.002136
54.85	0.009155	-0.052795	0.008698	-0.00351	-0.00412	-0.067596	-0.027924	0.000153	-0.016785	0.031281	0.34134	0.007324	-0.040741	-0.19028	-0.11765	-0.02594	0.01709	0.34851	0.99686	-0.14252	-0.010681	-0.17471	0.13779	-0.19699	0.13275	0.027161	-0.31128	0.032959	1.1256	0.0177	-0.004425	-0.001526
54.851	0.007172	-0.046692	0.025177	-0.014343	0.001373	-0.04837	-0.025787	-0.002899	-0.013885	-0.001221	0.15076	0.007324	-0.025482	-0.090485	0.12299	-0.021057	0.030823	0.2359	0.71304	-0.14206	-0.007324	-0.39063	0.1297	0.047913	0.15167	0.019226	-0.054474	0.098419	0.18433	0.065918	-0.004425	-0.002747
54.852	0.012054	-0.044861	0.009613	-0.010376	-0.005188	-0.032959	-0.02533	0.007019	-0.017548	-0.031128	-0.14145	0.00946	0.039825	-0.080261	0.15884	-0.014801	0.042725	0.1918	0.90851	-0.02243	-0.040436	-0.44495	0.027466	0.1474	0.44098	0.011139	0.089417	0.019684	0.15411	0.006256	-0.003052	-0.015411
54.853	0.013123	-0.056305	-0.013428	0.009155	-0.010529	-0.010834	-0.027466	0.007324	-0.024567	-0.024872	-0.095673	0.007782	0.00061	-0.035706	0.43991	-0.022583	0.026245	0.17746	0.84717	-0.12161	-0.047913	-0.36072	-0.079041	0.14023	0.54153	0.010223	0.22751	-0.000763	-0.33157	-0.067596	0.000916	-0.015259
54.854	0.009155	-0.04303	-0.033569	0.01709	-0.005798	-0.031738	-0.023193	0.007477	-0.015259	-0.019531	-0.16098	0.011292	-0.015564	-0.016022	0.029144	-0.004425	0.020905	0.18326	0.056305	-0.13412	-0.065918	-0.21851	-0.23254	0.052643	0.4245	-0.020447	0.30136	-0.00946	-0.19898	-0.053864	-0.009766	-0.00824
54.855	0.00946	-0.045624	-0.065765	0.0177	-0.0177	-0.03418	-0.011139	0.009155	-0.030518	-0.015564	-0.080109	0.009155	0.017242	-0.057068	-0.14755	-0.028839	0.02121	0.1741	-0.95078	-0.093689	-0.10101	-0.23224	-0.21896	-0.14008	0.1889	-0.062103	0.15915	-0.018463	0.39719	0.11597	-0.003204	-0.021362
54.856	0.006256	-0.058746	-0.06897	0.030823	-0.013428	-0.014191	-0.01358	0.009155	-0.026245	-0.037079	0.10284	0.005798	0.013885	-0.084534	-0.43564	-0.03067	0.019836	0.043335	-0.53833	-0.017242	-0.093842	-0.15533	-0.22598	-0.26184	-0.01709	-0.08728	0.23132	-0.013428	0.55664	0.28534	-0.003052	-0.016937
54.857	0.005798	-0.066376	-0.052032	0.006866	-0.017548	-0.013733	-0.010681	0.006714	-0.021515	-0.024872	0.071106	0.001831	-0.018158	-0.04837	-0.35217	-0.014191	0.005646	-0.041199	-0.054474	0.070496	-0.059509	0.037384	-0.078735	-0.18906	-0.30563	-0.090332	0.26932	-0.019989	-0.7164	-0.063934	-0.007172	-0.008545
54.858	0.00885	-0.067444	-0.011749	0.006561	-0.01297	-0.003357	-0.008698	0.007782	-0.019226	-0.006104	-0.040894	0.007629	-0.030975	-0.050964	-0.1947	-0.023346	0.01297	0.052795	-0.32303	0.06546	-0.015564	0.10773	0.29709	-0.012054	-0.51453	-0.083008	0.054321	-0.021515	-1.0719	-0.14938	-0.006561	0.000763
54.859	0.006561	-0.082092	-0.015717	0.002289	-0.008545	0.025177	0.005646	0.008545	-0.029449	0.016327	-0.079346	0.003815	-0.025482	-0.090332	-0.077667	-0.024109	0.02182	0.14236	-0.57083	0.041351	0.031891	0.014496	0.68802	0.94345	-0.34409	-0.066376	-0.019226	-0.012817	-1.496	-0.16892	-0.000305	0.007019
54.86	0.004578	-0.087128	0.0177	-0.0177	-0.024719	0.017395	-0.019531	0.007324	-0.032043	0.00061	-0.030212	0.007629	0.004883	-0.11536	0.044861	-0.013885	0.016937	0.12711	0.55267	0.076752	0.058899	0.078583	0.82153	1.3905	-0.028839	-0.068359	0.12634	-0.088043	-0.97672	-0.21835	-0.004425	0.003967
54.861	0.002899	-0.059509	0.030365	0.013275	-0.023193	0.018768	-0.004883	0.010223	-0.028381	-0.023193	-0.011902	-0.00061	0.065918	-0.077972	-0.039825	-0.009918	-0.00824	0.14389	0.699	0.06424	0.1149	0.2945	0.57419	1.4833	-0.039215	0.074768	-0.036163	-0.21713	-0.18448	0.13077	-0.00412	0.007477
54.862	0.011292	-0.074158	0.021362	0.049438	-0.000916	0.045166	-0.006561	0.009918	-0.023499	-0.025482	-0.007477	0.001221	0.049133	-0.028839	-0.08606	-0.014343	-0.01236	0.097046	0.34317	-0.049133	0.049896	0.14069	0.62561	0.67978	-0.31174	0.19257	-0.354	-0.29358	1.0631	-0.077972	-0.005035	-0.000763
54.863	0.000763	-0.072174	0.00061	0.032196	-0.005341	0.007477	-0.031586	0.003052	-0.028076	-0.00885	0.07843	0.006561	-0.03952	-0.046997	0.014343	-0.012665	-0.024261	0.071106	0.38849	-0.095673	-0.015411	0.054932	0.42496	-0.3154	-0.35324	0.042725	-0.26504	0.16708	0.6427	-0.31982	-0.009613	-0.011292
54.864	0.002441	-0.090179	-0.018616	0.025787	-0.003815	-0.016022	-0.03006	0.011444	-0.029602	0.003967	0.033417	0.003052	-0.023651	-0.062561	-0.003204	-0.007477	0.003662	-0.035553	-0.63339	-0.09079	-0.013275	0.11475	0.1915	-1.0994	-0.07782	-0.030823	-0.24475	0.26138	-0.62347	0.13687	-0.008698	-0.013733
54.865	0.007782	-0.083771	-0.031128	0.011292	0.001831	-0.021362	-0.020447	0.008545	-0.022583	-0.022278	0.02533	0.00351	-0.007935	-0.10788	0.05188	-0.015564	0.006104	-0.12878	-1.6975	0.002441	-0.021057	0.10727	-0.026093	-1.4465	0.33279	-0.070801	-0.20081	0.089417	0.12421	0.2356	-0.006409	-0.02182
54.866	0.000153	-0.054321	-0.047455	0.027618	-0.001984	-0.009308	-0.013275	0.009613	-0.026093	-0.022888	0.05188	0.011139	0.001526	-0.094604	0.064545	-0.018463	0.012817	-0.072784	-1.179	0.002136	-0.041351	0.071869	-0.24963	-1.227	0.60257	-0.037689	-0.08606	-0.21454	0.70404	0.6134	-0.002747	-0.019226
54.867	0.007782	-0.063324	-0.033112	0.020752	-0.005188	0.005798	-0.011902	0.002289	-0.03067	-0.009003	0.11307	0.003662	-0.009766	-0.072479	0.1532	-0.012665	0.005951	-0.029907	-0.69214	0.023956	-0.021667	-0.006714	-0.19547	-1.2125	0.62225	0.006561	-0.080566	0.28702	-0.1178	0.57297	-0.010071	-0.02182
54.868	0.005798	-0.060577	0.018005	0.011139	-0.017548	0.007172	-0.025787	0.001373	-0.030518	-0.017395	0.056458	-0.000763	0.002899	-0.001984	0.11566	0.003815	0.001984	-0.00412	-0.11231	0.044708	-0.019684	0.016327	-0.071564	-0.68451	0.16571	0.005798	-0.052795	0.10681	0.11414	0.61478	0.002747	-0.018158
54.869	0.001984	-0.053864	0.029144	0.034332	-0.011292	0.002441	-0.03891	-0.002136	-0.032043	-0.01297	0.017395	0.002441	-0.016174	0.030212	0.055542	-0.011444	0.020599	-0.081482	-0.070038	0.11383	-0.036621	-0.047607	0.18875	-0.51605	-0.39185	0.025177	-0.017548	0.06546	0.23193	0.31952	-0.00061	-0.012512
54.87	0.005341	-0.054321	-0.035248	0.010529	-0.012054	0.018921	-0.030975	0.003815	-0.025024	-0.002594	-0.002594	0.009918	-0.025482	-0.001678	0.15778	-0.010986	0.021362	-0.15503	-0.9903	0.11932	-0.054626	-0.088806	0.20081	-0.33066	-0.40009	0.035858	0.00946	0.019684	0.34012	0.15076	-0.006104	-0.00412
